<svg width="222" height="24" viewBox="0 0 222 24" fill="none" xmlns="http://www.w3.org/2000/svg">
<path d="M12.1497 18L10.5424 13.5305H4.38865L2.81443 18H0.0402832L6.06194 1.83949H8.92416L14.9458 18H12.1497ZM9.84888 11.2628L8.34071 6.88139C8.23062 6.58783 8.0765 6.12547 7.87835 5.49432C7.68754 4.86316 7.55543 4.40081 7.48204 4.10724C7.28389 5.00994 6.994 5.99704 6.61237 7.06854L5.15925 11.2628H9.84888ZM22.971 5.6044C23.4921 5.6044 23.9214 5.6411 24.259 5.71449L24.0058 8.12536C23.6389 8.03729 23.2573 7.99325 22.861 7.99325C21.8261 7.99325 20.9858 8.33085 20.34 9.00604C19.7015 9.68123 19.3823 10.5582 19.3823 11.6371V18H16.7953V5.82457H18.8208L19.1621 7.97124H19.2942C19.6978 7.24467 20.2226 6.66856 20.8684 6.2429C21.5216 5.81724 22.2225 5.6044 22.971 5.6044ZM31.0623 16.1286C31.6935 16.1286 32.3246 16.0295 32.9558 15.8313V17.7798C32.6695 17.9046 32.2989 18.0073 31.8439 18.0881C31.3962 18.1761 30.9302 18.2202 30.4458 18.2202C27.9946 18.2202 26.769 16.9285 26.769 14.3452V7.78409H25.1067V6.6392L26.8901 5.69247L27.7708 3.11648H29.367V5.82457H32.8347V7.78409H29.367V14.3011C29.367 14.925 29.5211 15.3873 29.8293 15.6882C30.1449 15.9818 30.5559 16.1286 31.0623 16.1286ZM37.9867 18H35.3997V5.82457H37.9867V18ZM35.2455 2.59908C35.2455 2.13672 35.3703 1.78078 35.6198 1.53125C35.8767 1.28172 36.24 1.15696 36.7097 1.15696C37.1647 1.15696 37.517 1.28172 37.7665 1.53125C38.0234 1.78078 38.1518 2.13672 38.1518 2.59908C38.1518 3.03942 38.0234 3.38802 37.7665 3.64489C37.517 3.89441 37.1647 4.01918 36.7097 4.01918C36.24 4.01918 35.8767 3.89441 35.6198 3.64489C35.3703 3.38802 35.2455 3.03942 35.2455 2.59908ZM47.8063 7.78409H44.834V18H42.2359V7.78409H40.2324V6.57315L42.2359 5.78054V4.98793C42.2359 3.54948 42.5735 2.48532 43.2487 1.79545C43.9239 1.09825 44.9551 0.749645 46.3421 0.749645C47.2522 0.749645 48.1475 0.900095 49.0282 1.20099L48.3457 3.16051C47.7072 2.95502 47.098 2.85227 46.5183 2.85227C45.9311 2.85227 45.5018 3.03575 45.2303 3.4027C44.9661 3.76231 44.834 4.3054 44.834 5.03196V5.82457H47.8063V7.78409ZM52.4629 18H49.8759V5.82457H52.4629V18ZM49.7217 2.59908C49.7217 2.13672 49.8465 1.78078 50.096 1.53125C50.3529 1.28172 50.7162 1.15696 51.1859 1.15696C51.6409 1.15696 51.9932 1.28172 52.2427 1.53125C52.4996 1.78078 52.628 2.13672 52.628 2.59908C52.628 3.03942 52.4996 3.38802 52.2427 3.64489C51.9932 3.89441 51.6409 4.01918 51.1859 4.01918C50.7162 4.01918 50.3529 3.89441 50.096 3.64489C49.8465 3.38802 49.7217 3.03942 49.7217 2.59908ZM61.0935 18.2202C59.2515 18.2202 57.8497 17.6844 56.8883 16.6129C55.9342 15.5341 55.4572 13.9892 55.4572 11.9783C55.4572 9.93075 55.9562 8.35653 56.9543 7.25568C57.9598 6.15483 59.4092 5.6044 61.3027 5.6044C62.587 5.6044 63.7429 5.84292 64.7704 6.31996L63.9888 8.40057C62.8953 7.97491 61.9926 7.76207 61.2807 7.76207C59.1744 7.76207 58.1212 9.16016 58.1212 11.9563C58.1212 13.3214 58.3818 14.3488 58.9029 15.0387C59.4313 15.7212 60.2019 16.0625 61.2146 16.0625C62.3669 16.0625 63.4567 15.7763 64.4842 15.2038V17.4606C64.0218 17.7321 63.5264 17.9266 62.998 18.044C62.477 18.1615 61.8421 18.2202 61.0935 18.2202ZM69.9334 18H67.3464V5.82457H69.9334V18ZM67.1923 2.59908C67.1923 2.13672 67.317 1.78078 67.5666 1.53125C67.8234 1.28172 68.1867 1.15696 68.6564 1.15696C69.1114 1.15696 69.4637 1.28172 69.7132 1.53125C69.9701 1.78078 70.0985 2.13672 70.0985 2.59908C70.0985 3.03942 69.9701 3.38802 69.7132 3.64489C69.4637 3.89441 69.1114 4.01918 68.6564 4.01918C68.1867 4.01918 67.8234 3.89441 67.5666 3.64489C67.317 3.38802 67.1923 3.03942 67.1923 2.59908ZM81.2612 18L80.7438 16.3047H80.6557C80.0686 17.0459 79.4778 17.5523 78.8833 17.8239C78.2889 18.0881 77.5256 18.2202 76.5935 18.2202C75.3973 18.2202 74.4616 17.8973 73.7864 17.2514C73.1185 16.6056 72.7846 15.6919 72.7846 14.5103C72.7846 13.2553 73.2506 12.3086 74.1827 11.6701C75.1147 11.0316 76.5348 10.683 78.443 10.6243L80.5456 10.5582V9.90874C80.5456 9.1308 80.3621 8.55102 79.9952 8.16939C79.6356 7.78042 79.0741 7.58594 78.3109 7.58594C77.6871 7.58594 77.0889 7.67768 76.5165 7.86115C75.944 8.04463 75.3936 8.26113 74.8652 8.51065L74.0286 6.66122C74.6891 6.31629 75.412 6.05575 76.1972 5.87962C76.9825 5.69614 77.7238 5.6044 78.421 5.6044C79.9695 5.6044 81.1364 5.942 81.9217 6.61719C82.7143 7.29238 83.1106 8.35286 83.1106 9.79865V18H81.2612ZM77.4082 16.2386C78.3476 16.2386 79.0998 15.9781 79.6649 15.457C80.2374 14.9286 80.5236 14.1911 80.5236 13.2443V12.1875L78.9604 12.2536C77.7421 12.2976 76.8541 12.5031 76.2963 12.87C75.7459 13.2296 75.4707 13.7837 75.4707 14.5323C75.4707 15.0754 75.6321 15.4974 75.9551 15.7983C76.278 16.0919 76.7623 16.2386 77.4082 16.2386ZM89.3084 18H86.7214V0.870739H89.3084V18ZM99.15 18V1.90554H101.781V18H99.15ZM116.477 18H113.879V10.5142C113.879 9.57481 113.689 8.87393 113.307 8.41158C112.933 7.94922 112.335 7.71804 111.513 7.71804C110.419 7.71804 109.619 8.04096 109.113 8.68679C108.606 9.33262 108.353 10.4151 108.353 11.9343V18H105.766V5.82457H107.792L108.155 7.42081H108.287C108.654 6.84103 109.175 6.39335 109.85 6.07777C110.525 5.76219 111.274 5.6044 112.096 5.6044C115.017 5.6044 116.477 7.09055 116.477 10.0629V18ZM124.613 16.1286C125.244 16.1286 125.875 16.0295 126.506 15.8313V17.7798C126.22 17.9046 125.849 18.0073 125.394 18.0881C124.947 18.1761 124.481 18.2202 123.996 18.2202C121.545 18.2202 120.319 16.9285 120.319 14.3452V7.78409H118.657V6.6392L120.44 5.69247L121.321 3.11648H122.917V5.82457H126.385V7.78409H122.917V14.3011C122.917 14.925 123.072 15.3873 123.38 15.6882C123.695 15.9818 124.106 16.1286 124.613 16.1286ZM134.267 18.2202C132.374 18.2202 130.891 17.6697 129.82 16.5689C128.756 15.4607 128.224 13.9379 128.224 12.0004C128.224 10.0115 128.719 8.44827 129.71 7.31072C130.7 6.17318 132.062 5.6044 133.794 5.6044C135.401 5.6044 136.671 6.09245 137.603 7.06854C138.535 8.04463 139.001 9.38767 139.001 11.0977V12.4957H130.888C130.924 13.6773 131.244 14.5874 131.845 15.2259C132.447 15.857 133.295 16.1726 134.388 16.1726C135.108 16.1726 135.775 16.1065 136.392 15.9744C137.016 15.835 137.684 15.6075 138.395 15.2919V17.3945C137.764 17.6954 137.126 17.9083 136.48 18.033C135.834 18.1578 135.097 18.2202 134.267 18.2202ZM133.794 7.56392C132.972 7.56392 132.311 7.82446 131.812 8.34553C131.321 8.8666 131.027 9.62618 130.932 10.6243H136.458C136.443 9.61884 136.201 8.85926 135.731 8.34553C135.262 7.82446 134.616 7.56392 133.794 7.56392ZM144.527 18H141.94V0.870739H144.527V18ZM150.824 18H148.237V0.870739H150.824V18ZM157.121 18H154.534V5.82457H157.121V18ZM154.38 2.59908C154.38 2.13672 154.505 1.78078 154.754 1.53125C155.011 1.28172 155.374 1.15696 155.844 1.15696C156.299 1.15696 156.651 1.28172 156.901 1.53125C157.158 1.78078 157.286 2.13672 157.286 2.59908C157.286 3.03942 157.158 3.38802 156.901 3.64489C156.651 3.89441 156.299 4.01918 155.844 4.01918C155.374 4.01918 155.011 3.89441 154.754 3.64489C154.505 3.38802 154.38 3.03942 154.38 2.59908ZM171.113 5.82457V7.24467L169.032 7.62997C169.223 7.88684 169.381 8.20241 169.505 8.5767C169.63 8.95099 169.693 9.3473 169.693 9.76563C169.693 11.0206 169.26 12.0077 168.394 12.7269C167.528 13.4461 166.335 13.8058 164.816 13.8058C164.427 13.8058 164.075 13.7764 163.759 13.7177C163.201 14.0626 162.922 14.4663 162.922 14.9286C162.922 15.2075 163.051 15.4167 163.308 15.5561C163.572 15.6955 164.053 15.7653 164.75 15.7653H166.874C168.217 15.7653 169.238 16.0515 169.935 16.6239C170.632 17.1964 170.981 18.022 170.981 19.1009C170.981 20.4806 170.412 21.5447 169.274 22.2933C168.137 23.0419 166.493 23.4162 164.342 23.4162C162.684 23.4162 161.418 23.1226 160.545 22.5355C159.671 21.9484 159.235 21.1117 159.235 20.0256C159.235 19.277 159.469 18.6458 159.939 18.1321C160.416 17.6257 161.08 17.2734 161.932 17.0753C161.587 16.9285 161.3 16.6937 161.073 16.3707C160.853 16.0405 160.743 15.6955 160.743 15.3359C160.743 14.8809 160.871 14.4956 161.128 14.18C161.385 13.8645 161.766 13.5526 162.273 13.2443C161.642 12.9728 161.128 12.5324 160.732 11.9233C160.343 11.3068 160.148 10.5876 160.148 9.76563C160.148 8.4446 160.563 7.42081 161.392 6.69425C162.229 5.96768 163.418 5.6044 164.959 5.6044C165.304 5.6044 165.664 5.63009 166.038 5.68146C166.419 5.7255 166.706 5.7732 166.896 5.82457H171.113ZM161.546 19.8935C161.546 20.4512 161.796 20.8806 162.295 21.1815C162.801 21.4824 163.51 21.6328 164.42 21.6328C165.829 21.6328 166.878 21.431 167.568 21.0273C168.258 20.6237 168.603 20.0879 168.603 19.4201C168.603 18.8917 168.412 18.5137 168.03 18.2862C167.656 18.0661 166.955 17.956 165.928 17.956H163.968C163.227 17.956 162.636 18.1284 162.196 18.4734C161.763 18.8256 161.546 19.299 161.546 19.8935ZM162.658 9.76563C162.658 10.5289 162.853 11.116 163.242 11.527C163.638 11.938 164.203 12.1435 164.937 12.1435C166.434 12.1435 167.183 11.3435 167.183 9.74361C167.183 8.95099 166.996 8.34186 166.621 7.91619C166.254 7.48319 165.693 7.26669 164.937 7.26669C164.188 7.26669 163.62 7.47952 163.231 7.90518C162.849 8.33085 162.658 8.95099 162.658 9.76563ZM178.698 18.2202C176.804 18.2202 175.322 17.6697 174.25 16.5689C173.186 15.4607 172.654 13.9379 172.654 12.0004C172.654 10.0115 173.149 8.44827 174.14 7.31072C175.131 6.17318 176.492 5.6044 178.224 5.6044C179.831 5.6044 181.101 6.09245 182.033 7.06854C182.965 8.04463 183.431 9.38767 183.431 11.0977V12.4957H175.318C175.355 13.6773 175.674 14.5874 176.276 15.2259C176.878 15.857 177.725 16.1726 178.819 16.1726C179.538 16.1726 180.206 16.1065 180.822 15.9744C181.446 15.835 182.114 15.6075 182.826 15.2919V17.3945C182.195 17.6954 181.556 17.9083 180.91 18.033C180.264 18.1578 179.527 18.2202 178.698 18.2202ZM178.224 7.56392C177.402 7.56392 176.742 7.82446 176.243 8.34553C175.751 8.8666 175.457 9.62618 175.362 10.6243H180.888C180.874 9.61884 180.631 8.85926 180.162 8.34553C179.692 7.82446 179.046 7.56392 178.224 7.56392ZM197.082 18H194.484V10.5142C194.484 9.57481 194.293 8.87393 193.911 8.41158C193.537 7.94922 192.939 7.71804 192.117 7.71804C191.023 7.71804 190.224 8.04096 189.717 8.68679C189.211 9.33262 188.958 10.4151 188.958 11.9343V18H186.371V5.82457H188.396L188.759 7.42081H188.891C189.258 6.84103 189.78 6.39335 190.455 6.07777C191.13 5.76219 191.878 5.6044 192.7 5.6044C195.621 5.6044 197.082 7.09055 197.082 10.0629V18ZM205.591 18.2202C203.749 18.2202 202.348 17.6844 201.386 16.6129C200.432 15.5341 199.955 13.9892 199.955 11.9783C199.955 9.93075 200.454 8.35653 201.452 7.25568C202.458 6.15483 203.907 5.6044 205.801 5.6044C207.085 5.6044 208.241 5.84292 209.268 6.31996L208.487 8.40057C207.393 7.97491 206.49 7.76207 205.779 7.76207C203.672 7.76207 202.619 9.16016 202.619 11.9563C202.619 13.3214 202.88 14.3488 203.401 15.0387C203.929 15.7212 204.7 16.0625 205.713 16.0625C206.865 16.0625 207.955 15.7763 208.982 15.2038V17.4606C208.52 17.7321 208.024 17.9266 207.496 18.044C206.975 18.1615 206.34 18.2202 205.591 18.2202ZM217.161 18.2202C215.268 18.2202 213.785 17.6697 212.714 16.5689C211.65 15.4607 211.118 13.9379 211.118 12.0004C211.118 10.0115 211.613 8.44827 212.604 7.31072C213.595 6.17318 214.956 5.6044 216.688 5.6044C218.295 5.6044 219.565 6.09245 220.497 7.06854C221.429 8.04463 221.895 9.38767 221.895 11.0977V12.4957H213.782C213.818 13.6773 214.138 14.5874 214.74 15.2259C215.341 15.857 216.189 16.1726 217.282 16.1726C218.002 16.1726 218.67 16.1065 219.286 15.9744C219.91 15.835 220.578 15.6075 221.29 15.2919V17.3945C220.658 17.6954 220.02 17.9083 219.374 18.033C218.728 18.1578 217.991 18.2202 217.161 18.2202ZM216.688 7.56392C215.866 7.56392 215.206 7.82446 214.706 8.34553C214.215 8.8666 213.921 9.62618 213.826 10.6243H219.352C219.337 9.61884 219.095 8.85926 218.626 8.34553C218.156 7.82446 217.51 7.56392 216.688 7.56392Z" fill="#3A68B8"/>
</svg>
